<?xml version="1.0" encoding="UTF-8"?>
<!DOCTYPE svg PUBLIC "-//W3C//DTD SVG 1.1//EN" "http://www.w3.org/Graphics/SVG/1.1/DTD/svg11.dtd">
<svg xmlns="http://www.w3.org/2000/svg" version="1.1" width="512px" height="512px" style="shape-rendering:geometricPrecision; text-rendering:geometricPrecision; image-rendering:optimizeQuality; fill-rule:evenodd; clip-rule:evenodd" xmlns:xlink="http://www.w3.org/1999/xlink">
<g><path style="opacity:0.972" fill="#000000" d="M 203.5,-0.5 C 217.833,-0.5 232.167,-0.5 246.5,-0.5C 325.174,9.73672 384.34,49.0701 424,117.5C 452.181,172.129 458.181,229.129 442,288.5C 433.299,318.244 419.132,344.911 399.5,368.5C 435.153,404.653 470.986,440.653 507,476.5C 508.795,479.099 510.295,481.766 511.5,484.5C 511.5,488.833 511.5,493.167 511.5,497.5C 508.5,503.833 503.833,508.5 497.5,511.5C 493.167,511.5 488.833,511.5 484.5,511.5C 481.766,510.295 479.099,508.795 476.5,507C 440.653,470.986 404.653,435.153 368.5,399.5C 312.13,444.008 248.463,459.508 177.5,446C 92.1046,424.605 35.6046,372.105 8,288.5C 4.18152,274.561 1.34819,260.561 -0.5,246.5C -0.5,232.167 -0.5,217.833 -0.5,203.5C 11.2228,115.285 57.5562,52.7854 138.5,16C 159.571,7.62577 181.238,2.12577 203.5,-0.5 Z M 217.5,41.5 C 284.727,41.3618 337.894,68.3618 377,122.5C 416.398,186.345 418.398,251.345 383,317.5C 346.535,375.415 293.868,405.749 225,408.5C 148.276,404.661 92.6098,368.661 58,300.5C 33.6415,242.188 36.9748,185.522 68,130.5C 102.991,76.081 152.825,46.4143 217.5,41.5 Z"/></g>
</svg>
