<?xml version="1.0" encoding="UTF-8"?>
<!DOCTYPE svg PUBLIC "-//W3C//DTD SVG 1.1//EN" "http://www.w3.org/Graphics/SVG/1.1/DTD/svg11.dtd">
<svg xmlns="http://www.w3.org/2000/svg" version="1.1" width="9921px" height="9921px" style="shape-rendering:geometricPrecision; text-rendering:geometricPrecision; image-rendering:optimizeQuality; fill-rule:evenodd; clip-rule:evenodd" xmlns:xlink="http://www.w3.org/1999/xlink">
<g><path style="opacity:0.999" fill="#000000" d="M 4965.5,9920.5 C 4959.83,9920.5 4954.17,9920.5 4948.5,9920.5C 4929.16,9916.59 4909.83,9912.09 4890.5,9907C 4876.52,9898.36 4863.68,9888.19 4852,9876.5C 4844.61,9866.78 4837.61,9856.78 4831,9846.5C 4825.7,9826.31 4821.03,9805.98 4817,9785.5C 4814.66,9746.75 4811.33,9708.08 4807,9669.5C 4799.28,9607.8 4791.28,9546.13 4783,9484.5C 4601.5,8137.81 4419.83,6791.14 4238,5444.5C 4112.35,5220.52 3985.68,4997.18 3858,4774.5C 3239.33,3696.5 2620.67,2618.5 2002,1540.5C 1997.79,1532.74 1994.12,1524.74 1991,1516.5C 1986.01,1497.54 1981.18,1478.54 1976.5,1459.5C 1981.73,1439.19 1986.9,1418.85 1992,1398.5C 2000.51,1385 2010.34,1372.5 2021.5,1361C 2031.17,1354 2040.83,1347 2050.5,1340C 2070.58,1334.77 2090.74,1329.94 2111,1325.5C 2131.19,1330.26 2151.36,1335.09 2171.5,1340C 2185.56,1349.71 2198.9,1360.37 2211.5,1372C 2345.66,1506.82 2479.49,1641.32 2613,1775.5C 3094.16,2261.33 3575.16,2746.99 4056,3232.5C 4356.56,3534.06 4656.89,3836.06 4957,4138.5C 5242.08,3851.09 5527.41,3564.09 5813,3277.5C 6298.72,2787.11 6784.39,2296.78 7270,1806.5C 7414.98,1660.86 7560.14,1515.02 7705.5,1369C 7717.26,1358.57 7729.59,1348.9 7742.5,1340C 7762.42,1334.85 7782.42,1330.02 7802.5,1325.5C 7823.34,1330.04 7844.01,1335.21 7864.5,1341C 7874.5,1348.33 7884.5,1355.67 7894.5,1363C 7904.43,1374.26 7913.6,1386.1 7922,1398.5C 7927.15,1418.77 7931.99,1439.1 7936.5,1459.5C 7932.12,1482.23 7926.29,1504.56 7919,1526.5C 7915.41,1532.68 7912.08,1539.01 7909,1545.5C 7292,2620.5 6675,3695.5 6058,4770.5C 5969,4926.5 5880,5082.5 5791,5238.5C 5752.27,5306.91 5713.93,5375.58 5676,5444.5C 5492.67,6800.43 5309.67,8156.43 5127,9512.5C 5118.68,9573.08 5111.01,9633.75 5104,9694.5C 5101.11,9724.46 5098.77,9754.46 5097,9784.5C 5092.63,9805.98 5087.63,9827.31 5082,9848.5C 5073.01,9861.64 5063.18,9874.14 5052.5,9886C 5042.83,9893 5033.17,9900 5023.5,9907C 5004.12,9911.85 4984.78,9916.35 4965.5,9920.5 Z"/></g>
<g><path style="opacity:0.998" fill="#000000" d="M -0.5,6660.5 C -0.5,6639.83 -0.5,6619.17 -0.5,6598.5C 2.12662,6589 4.62662,6579.33 7,6569.5C 14.3333,6559.5 21.6667,6549.5 29,6539.5C 49.9528,6520.25 73.7862,6505.42 100.5,6495C 1067.5,6106 2034.5,5717 3001.5,5328C 3033.63,5313.85 3066.96,5303.51 3101.5,5297C 3109.61,5296.82 3117.61,5297.82 3125.5,5300C 3139.13,5303.49 3152.8,5306.82 3166.5,5310C 3180.82,5318.98 3193.99,5329.48 3206,5341.5C 3212.67,5350.83 3219.33,5360.17 3226,5369.5C 3306.33,5576.5 3386.67,5783.5 3467,5990.5C 3473.29,6012.65 3478.79,6034.98 3483.5,6057.5C 3478.98,6077.57 3474.15,6097.57 3469,6117.5C 3460.49,6131 3450.66,6143.5 3439.5,6155C 3429.83,6162 3420.17,6169 3410.5,6176C 3394.26,6180.38 3377.93,6184.38 3361.5,6188C 3243.93,6209.87 3126.27,6231.21 3008.5,6252C 2088.46,6415.45 1168.46,6579.12 248.5,6743C 208.768,6750.15 168.935,6756.65 129,6762.5C 107.19,6759.01 85.6899,6754.17 64.5,6748C 51.13,6738.97 38.63,6728.8 27,6717.5C 20.3333,6708.17 13.6667,6698.83 7,6689.5C 4.94092,6679.59 2.44092,6669.93 -0.5,6660.5 Z"/></g>
<g><path style="opacity:0.998" fill="#000000" d="M 9920.5,6624.5 C 9920.5,6627.83 9920.5,6631.17 9920.5,6634.5C 9915.72,6652.29 9911.22,6670.29 9907,6688.5C 9898.16,6702.66 9888,6715.83 9876.5,6728C 9866.83,6735 9857.17,6742 9847.5,6749C 9828.3,6753.97 9808.97,6758.3 9789.5,6762C 9779.42,6762.04 9769.42,6761.04 9759.5,6759C 8836.09,6595.43 7912.76,6431.43 6989.5,6267C 6842.05,6240.98 6694.71,6214.31 6547.5,6187C 6532.74,6183.64 6518.07,6179.98 6503.5,6176C 6489.33,6166.82 6476.16,6156.32 6464,6144.5C 6456.94,6135.11 6450.28,6125.44 6444,6115.5C 6439.48,6096.08 6434.65,6076.75 6429.5,6057.5C 6435.22,6032.94 6441.72,6008.61 6449,5984.5C 6528.8,5778.75 6608.8,5573.09 6689,5367.5C 6696.33,5357.5 6703.67,5347.5 6711,5337.5C 6721.93,5327.9 6733.43,5319.07 6745.5,5311C 6761.03,5306.53 6776.7,5302.53 6792.5,5299C 6798.73,5297.15 6805.06,5296.49 6811.5,5297C 6829.36,5300.55 6847.03,5304.88 6864.5,5310C 6887.32,5318.27 6909.99,5326.94 6932.5,5336C 7891.09,5721.86 8849.75,6107.53 9808.5,6493C 9836.3,6503.14 9861.13,6517.97 9883,6537.5C 9891.39,6548.22 9899.39,6559.22 9907,6570.5C 9911.22,6588.7 9915.72,6606.7 9920.5,6624.5 Z"/></g>
</svg>
