<?xml version="1.0" encoding="UTF-8"?>
<!DOCTYPE svg PUBLIC "-//W3C//DTD SVG 1.1//EN" "http://www.w3.org/Graphics/SVG/1.1/DTD/svg11.dtd">
<svg xmlns="http://www.w3.org/2000/svg" version="1.1" width="512px" height="512px" style="shape-rendering:geometricPrecision; text-rendering:geometricPrecision; image-rendering:optimizeQuality; fill-rule:evenodd; clip-rule:evenodd" xmlns:xlink="http://www.w3.org/1999/xlink">
<g><path style="opacity:0.975" fill="#000000" d="M 249.5,-0.5 C 253.5,-0.5 257.5,-0.5 261.5,-0.5C 265.811,1.6467 268.978,4.98004 271,9.5C 271.667,27.5 271.667,45.5 271,63.5C 265.603,74.0776 257.436,76.9109 246.5,72C 243.538,69.7134 241.371,66.8801 240,63.5C 239.333,45.5 239.333,27.5 240,9.5C 242.022,4.98004 245.189,1.6467 249.5,-0.5 Z"/></g>
<g><path style="opacity:0.95" fill="#000000" d="M 80.5,69.5 C 85.742,69.0227 90.742,69.8561 95.5,72C 106.667,83.1667 117.833,94.3333 129,105.5C 134.987,116.188 132.821,124.688 122.5,131C 116.507,133.28 110.84,132.613 105.5,129C 94.3333,117.833 83.1667,106.667 72,95.5C 66.5841,84.0226 69.4174,75.3559 80.5,69.5 Z"/></g>
<g><path style="opacity:0.95" fill="#000000" d="M 420.5,69.5 C 438.554,69.7195 444.721,78.3861 439,95.5C 427.833,106.667 416.667,117.833 405.5,129C 395.976,134.407 387.81,132.907 381,124.5C 377.474,117.98 377.807,111.647 382,105.5C 393.167,94.3333 404.333,83.1667 415.5,72C 417.315,71.2432 418.981,70.4098 420.5,69.5 Z"/></g>
<g><path style="opacity:0.991" fill="#000000" d="M 243.5,112.5 C 297.621,110.149 340.787,130.483 373,173.5C 403.908,222.278 406.575,272.611 381,324.5C 347.563,379.134 298.73,403.301 234.5,397C 173.944,385.641 134.778,350.474 117,291.5C 104.009,228.364 122.843,177.197 173.5,138C 194.775,123.633 218.109,115.133 243.5,112.5 Z"/></g>
<g><path style="opacity:0.975" fill="#000000" d="M -0.5,261.5 C -0.5,257.5 -0.5,253.5 -0.5,249.5C 1.6467,245.189 4.98004,242.022 9.5,240C 27.5,239.333 45.5,239.333 63.5,240C 74.0776,245.397 76.9109,253.564 72,264.5C 69.7134,267.462 66.8801,269.629 63.5,271C 45.5,271.667 27.5,271.667 9.5,271C 4.98004,268.978 1.6467,265.811 -0.5,261.5 Z"/></g>
<g><path style="opacity:0.976" fill="#000000" d="M 511.5,249.5 C 511.5,253.5 511.5,257.5 511.5,261.5C 509.353,265.811 506.02,268.978 501.5,271C 483.5,271.667 465.5,271.667 447.5,271C 436.91,265.564 434.076,257.397 439,246.5C 441.287,243.538 444.12,241.371 447.5,240C 465.5,239.333 483.5,239.333 501.5,240C 506.02,242.022 509.353,245.189 511.5,249.5 Z"/></g>
<g><path style="opacity:0.95" fill="#000000" d="M 112.5,378.5 C 124.134,378.133 130.801,383.633 132.5,395C 132.135,398.763 130.968,402.263 129,405.5C 117.833,416.667 106.667,427.833 95.5,439C 84.1386,444.525 75.6386,441.691 70,430.5C 69.0229,425.266 69.6896,420.266 72,415.5C 83.1667,404.333 94.3333,393.167 105.5,382C 107.925,380.787 110.259,379.621 112.5,378.5 Z"/></g>
<g><path style="opacity:0.95" fill="#000000" d="M 392.5,378.5 C 397.182,378.338 401.515,379.505 405.5,382C 416.667,393.167 427.833,404.333 439,415.5C 443.483,424.552 441.983,432.386 434.5,439C 428.194,442.272 421.861,442.272 415.5,439C 404.333,427.833 393.167,416.667 382,405.5C 375.664,392.438 379.164,383.438 392.5,378.5 Z"/></g>
<g><path style="opacity:0.976" fill="#000000" d="M 261.5,511.5 C 257.5,511.5 253.5,511.5 249.5,511.5C 245.189,509.353 242.022,506.02 240,501.5C 239.333,483.5 239.333,465.5 240,447.5C 245.436,436.91 253.603,434.076 264.5,439C 267.433,441.264 269.6,444.098 271,447.5C 271.667,465.5 271.667,483.5 271,501.5C 268.978,506.02 265.811,509.353 261.5,511.5 Z"/></g>
</svg>
