<?xml version="1.0" encoding="UTF-8"?>
<!DOCTYPE svg PUBLIC "-//W3C//DTD SVG 1.1//EN" "http://www.w3.org/Graphics/SVG/1.1/DTD/svg11.dtd">
<svg xmlns="http://www.w3.org/2000/svg" version="1.1" width="512px" height="512px" style="shape-rendering:geometricPrecision; text-rendering:geometricPrecision; image-rendering:optimizeQuality; fill-rule:evenodd; clip-rule:evenodd" xmlns:xlink="http://www.w3.org/1999/xlink">
<g><path style="opacity:0.974" fill="#fefffe" d="M 432.5,-0.5 C 439.833,-0.5 447.167,-0.5 454.5,-0.5C 485.167,6.83333 504.167,25.8333 511.5,56.5C 511.5,63.5 511.5,70.5 511.5,77.5C 509.254,86.9952 505.087,95.6619 499,103.5C 434.167,168.333 369.333,233.167 304.5,298C 302.044,299.711 299.377,301.044 296.5,302C 269.59,305.916 242.59,308.583 215.5,310C 202.097,304.201 197.264,294.034 201,279.5C 203.491,256.745 206.491,234.079 210,211.5C 211,209.833 212,208.167 213,206.5C 277.833,141.667 342.667,76.8333 407.5,12C 415.1,6.20015 423.433,2.03348 432.5,-0.5 Z M 247.5,263.5 C 248.41,252.48 249.576,241.48 251,230.5C 312.5,169 374,107.5 435.5,46C 440.087,42.35 445.087,41.6833 450.5,44C 462.373,48.8688 468.207,57.7022 468,70.5C 467.333,71.8333 466.667,73.1667 466,74.5C 404.167,136.333 342.333,198.167 280.5,260C 269.536,261.57 258.536,262.737 247.5,263.5 Z"/></g>
<g><path style="opacity:0.988" fill="#fefffe" d="M 373.5,511.5 C 266.5,511.5 159.5,511.5 52.5,511.5C 24.2818,504.949 6.61511,487.615 -0.5,459.5C -0.5,344.833 -0.5,230.167 -0.5,115.5C 6.31934,87.8478 23.6527,70.6811 51.5,64C 118.5,63.3333 185.5,63.3333 252.5,64C 265.652,70.4715 269.818,80.6382 265,94.5C 261.837,100.344 257.004,104.177 250.5,106C 187.167,106.333 123.833,106.667 60.5,107C 50.6667,108.833 44.8333,114.667 43,124.5C 42.0083,234.543 42.3416,344.543 44,454.5C 47.0481,461.947 52.5481,466.447 60.5,468C 162.167,468.667 263.833,468.667 365.5,468C 376.02,465.148 381.853,458.315 383,447.5C 383.333,391.833 383.667,336.167 384,280.5C 388.635,268.262 397.468,263.428 410.5,266C 418.333,268.5 423.5,273.667 426,281.5C 426.667,339.833 426.667,398.167 426,456.5C 420.203,486.153 402.703,504.486 373.5,511.5 Z"/></g>
</svg>
