<?xml version="1.0" encoding="UTF-8"?>
<!DOCTYPE svg PUBLIC "-//W3C//DTD SVG 1.1//EN" "http://www.w3.org/Graphics/SVG/1.1/DTD/svg11.dtd">
<svg xmlns="http://www.w3.org/2000/svg" version="1.1" width="512px" height="512px" style="shape-rendering:geometricPrecision; text-rendering:geometricPrecision; image-rendering:optimizeQuality; fill-rule:evenodd; clip-rule:evenodd" xmlns:xlink="http://www.w3.org/1999/xlink">
<g><path style="opacity:0.969" fill="#000000" d="M -0.5,116.5 C -0.5,100.5 -0.5,84.5 -0.5,68.5C 53.5,68.5 107.5,68.5 161.5,68.5C 161.5,53.1667 161.5,37.8333 161.5,22.5C 177.5,22.5 193.5,22.5 209.5,22.5C 209.5,37.8333 209.5,53.1667 209.5,68.5C 263.833,68.5 318.167,68.5 372.5,68.5C 372.5,84.5 372.5,100.5 372.5,116.5C 349.5,116.5 326.5,116.5 303.5,116.5C 286.046,173.935 257.379,224.768 217.5,269C 237.652,287.985 257.319,307.485 276.5,327.5C 270.568,342.794 264.735,358.128 259,373.5C 258.282,374.451 257.449,374.617 256.5,374C 232.986,350.319 209.32,326.819 185.5,303.5C 146.807,342.027 107.974,380.36 69,418.5C 57.708,408.209 46.708,397.542 36,386.5C 74.4856,346.847 113.652,307.514 153.5,268.5C 125.522,236.579 102.522,201.246 84.5,162.5C 100.5,161.167 116.5,161.167 132.5,162.5C 146.882,190.609 164.715,216.276 186,239.5C 217.679,203.339 241.846,162.505 258.5,117C 172.167,116.5 85.834,116.333 -0.5,116.5 Z"/></g>
<g><path style="opacity:0.977" fill="#000000" d="M 511.5,485.5 C 511.5,486.5 511.5,487.5 511.5,488.5C 495.83,488.667 480.163,488.5 464.5,488C 455.74,465.222 447.073,442.389 438.5,419.5C 401.833,418.167 365.167,418.167 328.5,419.5C 319.927,442.389 311.26,465.222 302.5,488C 286.837,488.5 271.17,488.667 255.5,488.5C 289.695,395.753 324.195,303.086 359,210.5C 366.934,209.183 375.1,208.516 383.5,208.5C 391.9,208.516 400.066,209.183 408,210.5C 442.234,302.382 476.734,394.049 511.5,485.5 Z M 382.5,273.5 C 383.497,273.47 384.164,273.97 384.5,275C 396.232,307.125 408.232,339.125 420.5,371C 395.833,371.667 371.167,371.667 346.5,371C 359.194,338.751 371.194,306.251 382.5,273.5 Z"/></g>
</svg>
