<?xml version="1.0" encoding="UTF-8"?>
<!DOCTYPE svg PUBLIC "-//W3C//DTD SVG 1.1//EN" "http://www.w3.org/Graphics/SVG/1.1/DTD/svg11.dtd">
<svg xmlns="http://www.w3.org/2000/svg" version="1.1" width="512px" height="512px" style="shape-rendering:geometricPrecision; text-rendering:geometricPrecision; image-rendering:optimizeQuality; fill-rule:evenodd; clip-rule:evenodd" xmlns:xlink="http://www.w3.org/1999/xlink">
<g><path style="opacity:0.973" fill="#fefffe" d="M 237.5,20.5 C 312.317,16.8146 375.817,41.4812 428,94.5C 487.102,162.596 504.435,240.263 480,327.5C 453.74,403.426 402.574,454.26 326.5,480C 262.595,498.71 201.261,492.543 142.5,461.5C 109.239,472.088 75.739,481.755 42,490.5C 26.0414,488.535 19.0414,479.535 21,463.5C 30.4008,431.798 39.9008,400.131 49.5,368.5C 18.3255,309.755 12.1588,248.422 31,184.5C 49.9118,126.267 85.7451,81.7667 138.5,51C 169.478,33.8456 202.478,23.679 237.5,20.5 Z M 75.5,435.5 C 81.3561,414.43 87.5227,393.43 94,372.5C 94.8392,367.079 94.5059,361.746 93,356.5C 56.4863,292.238 55.153,227.238 89,161.5C 137.805,84.8697 207.305,54.0363 297.5,69C 370.032,87.8657 417.532,133.032 440,204.5C 457.651,280.428 438.484,345.262 382.5,399C 321.926,448.512 254.926,459.512 181.5,432C 172.343,427.588 163.343,422.922 154.5,418C 149.254,416.494 143.921,416.161 138.5,417C 117.57,423.477 96.5704,429.644 75.5,435.5 Z"/></g>
</svg>
