<?xml version="1.0" encoding="UTF-8"?>
<!DOCTYPE svg PUBLIC "-//W3C//DTD SVG 1.1//EN" "http://www.w3.org/Graphics/SVG/1.1/DTD/svg11.dtd">
<svg xmlns="http://www.w3.org/2000/svg" version="1.1" width="512px" height="512px" style="shape-rendering:geometricPrecision; text-rendering:geometricPrecision; image-rendering:optimizeQuality; fill-rule:evenodd; clip-rule:evenodd" xmlns:xlink="http://www.w3.org/1999/xlink">
<g><path style="opacity:0.995" fill="#000000" d="M 245.5,-0.5 C 252.167,-0.5 258.833,-0.5 265.5,-0.5C 283.484,4.65165 294.984,16.3183 300,34.5C 300.333,44.8333 300.667,55.1667 301,65.5C 360.52,86.3532 396.52,127.687 409,189.5C 410.183,215.813 411.183,242.147 412,268.5C 417.484,323.454 439.151,370.788 477,410.5C 481.794,418.125 481.628,425.625 476.5,433C 474.833,434 473.167,435 471.5,436C 327.5,436.667 183.5,436.667 39.5,436C 31.0851,431.652 28.2517,424.819 31,415.5C 51.0507,393.753 67.384,369.42 80,342.5C 90.2182,318.843 96.5515,294.176 99,268.5C 99.8171,242.147 100.817,215.813 102,189.5C 114.501,127.667 150.501,86.334 210,65.5C 210.333,55.1667 210.667,44.8333 211,34.5C 216.016,16.3183 227.516,4.65165 245.5,-0.5 Z M 250.5,30.5 C 261.422,29.1971 267.922,33.8637 270,44.5C 270.499,49.4889 270.666,54.4889 270.5,59.5C 260.5,59.5 250.5,59.5 240.5,59.5C 240.226,52.7695 240.726,46.1028 242,39.5C 243.688,35.3148 246.521,32.3148 250.5,30.5 Z"/></g>
<g><path style="opacity:0.957" fill="#000000" d="M 103.5,50.5 C 117.495,49.9936 123.662,56.6603 122,70.5C 118.803,76.7028 114.47,82.0362 109,86.5C 87.8338,110.829 73.5004,138.829 66,170.5C 62.8737,187.779 60.5404,205.112 59,222.5C 54.1741,229.144 47.6741,231.311 39.5,229C 35.3333,227.5 32.5,224.667 31,220.5C 29.3969,156.952 50.3969,102.285 94,56.5C 96.8426,53.8373 100.009,51.8373 103.5,50.5 Z"/></g>
<g><path style="opacity:0.956" fill="#000000" d="M 399.5,50.5 C 404.901,49.9664 409.901,51.133 414.5,54C 459.858,100.047 481.692,155.547 480,220.5C 475.652,228.915 468.819,231.748 459.5,229C 456.265,227.64 453.765,225.473 452,222.5C 451.363,180.942 440.03,142.608 418,107.5C 410.462,96.2888 401.795,85.9555 392,76.5C 385.554,65.0968 388.054,56.4302 399.5,50.5 Z"/></g>
<g><path style="opacity:0.978" fill="#000000" d="M 267.5,511.5 C 259.5,511.5 251.5,511.5 243.5,511.5C 217.358,506.244 198.358,491.577 186.5,467.5C 232.5,466.167 278.5,466.167 324.5,467.5C 312.65,491.575 293.65,506.241 267.5,511.5 Z"/></g>
</svg>
